<svg xmlns="http://www.w3.org/2000/svg" xmlns:xlink="http://www.w3.org/1999/xlink" viewBox="0 0 3389.93 737.86"><defs><style>.cls-1,.cls-2{stroke:#010101;stroke-miterlimit:1.41;}.cls-1{stroke-linecap:round;stroke-width:7px;fill:url(#linear-gradient);}.cls-2{fill:#75c094;stroke-width:6px;opacity:0.2;}.cls-3{fill:#2d3e50;}.cls-4{fill:#d25627;}.cls-5{fill:#020202;}</style><linearGradient id="linear-gradient" x1="2899.67" y1="734.36" x2="2899.67" y2="2.9" gradientUnits="userSpaceOnUse"><stop offset="0" stop-color="#e9ddee"/><stop offset="0.44" stop-color="#d5acd1" stop-opacity="0.99"/><stop offset="0.44" stop-color="#d5edfa" stop-opacity="0"/></linearGradient></defs><title>synbiohub</title><g id="Layer_1" data-name="Layer 1"><path id="rect3162" class="cls-1" d="M3220.88,110.35,3062.44,2.9c3.87,49.35-16.45,70.13-42.52,108L2936.1,229.79,2662.24,375.05c-86.43,36.8-108.58,112.28-54.35,149.41l291.33,196.79c47.88,37.73,110.36-9.8,122.3-93.54L3053,308.1l82.32-119.61c26.06-37.88,38.23-64.32,85.57-78.14Z" transform="translate(-22.3)"/><path id="path3188" class="cls-2" d="M2720.56,395.13,2677.1,365.7" transform="translate(-22.3)"/><path class="cls-3" d="M34,542.18c20.71,12.75,51,23.37,82.84,23.37,47.26,0,74.87-25,74.87-61.07,0-33.45-19.11-52.57-67.44-71.15-58.41-20.71-94.51-51-94.51-101.42,0-55.76,46.19-97.18,115.76-97.18,36.63,0,63.19,8.5,79.12,17.52L211.87,290a142.44,142.44,0,0,0-68-17c-48.85,0-67.44,29.21-67.44,53.64,0,33.45,21.78,49.91,71.16,69C208.15,419,239,448.2,239,500.77c0,55.22-40.88,103-125.31,103-34.52,0-72.22-10.09-91.34-22.83Z" transform="translate(-22.3)"/><path class="cls-3" d="M313.29,341.46l56.29,151.87c5.84,17,12.21,37.17,16.46,52.57h1.06c4.78-15.4,10.09-35,16.46-53.63l51-150.81h49.38l-70.09,183.2c-33.45,88.15-56.29,133.28-88.15,160.9-22.83,20.17-45.66,28.14-57.35,30.26l-11.68-39.29a123.61,123.61,0,0,0,40.89-22.84c12.74-10.08,28.67-28.14,39.29-52,2.13-4.78,3.72-8.5,3.72-11.15s-1.06-6.38-3.19-12.22L262.31,341.46Z" transform="translate(-22.3)"/><path class="cls-3" d="M546.4,411c0-26.54-.53-48.32-2.13-69.56h41.42l2.66,42.48h1.06c12.74-24.42,42.48-48.32,85-48.32,35.58,0,90.8,21.24,90.8,109.39V598.47H718.44V450.32c0-41.42-15.4-75.93-59.47-75.93-30.8,0-54.69,21.77-62.66,47.79-2.12,5.84-3.19,13.8-3.19,21.77V598.47H546.4Z" transform="translate(-22.3)"/><path class="cls-3" d="M842.69,245.35c20.18-4.25,52-7.43,84.43-7.43,46.2,0,75.93,8,98.24,26,18.58,13.8,29.73,35,29.73,63.19,0,34.51-22.83,64.78-60.53,78.59v1.06c34,8.49,73.81,36.64,73.81,89.74,0,30.79-12.21,54.16-30.27,71.68-25,22.84-65.31,33.46-123.72,33.46-31.86,0-56.29-2.13-71.69-4.25Zm46.2,146.56h42c48.85,0,77.52-25.49,77.52-60,0-42-31.86-58.42-78.58-58.42-21.24,0-33.46,1.6-40.89,3.19Zm0,171.51c9,1.6,22.3,2.13,38.76,2.13,47.79,0,91.87-17.53,91.87-69.56,0-48.86-41.95-69-92.4-69H888.89Z" transform="translate(-22.3)"/><path class="cls-3" d="M1180.93,269.25c.53,15.93-11.15,28.67-29.73,28.67-16.46,0-28.15-12.74-28.15-28.67,0-16.46,12.22-29.21,29.21-29.21C1169.78,240,1180.93,252.79,1180.93,269.25Zm-52,329.22v-257h46.72v257Z" transform="translate(-22.3)"/><path class="cls-3" d="M1485.73,467.84c0,95.05-65.85,136.47-128,136.47-69.56,0-123.19-51-123.19-132.22,0-86,56.29-136.47,127.44-136.47C1435.81,335.62,1485.73,389.25,1485.73,467.84Zm-203.91,2.66c0,56.28,32.39,98.77,78.06,98.77,44.6,0,78.06-42,78.06-99.83,0-43.55-21.78-98.77-77-98.77S1281.82,421.65,1281.82,470.5Z" transform="translate(-22.3)"/><path class="cls-4" d="M1592.45,240.57V390.32h173.11V240.57h46.73v357.9h-46.73V430.67H1592.45v167.8h-46.19V240.57Z" transform="translate(-22.3)"/><path class="cls-4" d="M2105.93,528.38c0,26.55.53,49.91,2.12,70.09h-41.42l-2.65-42h-1.06c-12.22,20.71-39.3,47.79-85,47.79-40.36,0-88.68-22.3-88.68-112.57V341.46H1936V483.77c0,48.86,14.86,81.78,57.34,81.78,31.33,0,53.11-21.77,61.6-42.48a68.26,68.26,0,0,0,4.25-23.9V341.46h46.73Z" transform="translate(-22.3)"/><path class="cls-4" d="M2181.33,598.47c1.06-17.52,2.12-43.54,2.12-66.38V221.46h46.2V382.88h1.06c16.46-28.67,46.2-47.26,87.61-47.26,63.72,0,108.86,53.1,108.33,131.16,0,91.87-57.88,137.53-115.23,137.53-37.17,0-66.9-14.34-86-48.32h-1.59l-2.13,42.48Zm48.32-103a87.63,87.63,0,0,0,2.12,17c9,32.39,36.11,54.69,70.09,54.69,48.86,0,78.06-39.83,78.06-98.77,0-51.5-26.55-95.58-76.46-95.58-31.86,0-61.6,21.77-71.16,57.35-1.06,5.31-2.65,11.68-2.65,19.12Z" transform="translate(-22.3)"/><path id="path3188-2" data-name="path3188" class="cls-2" d="M2809.48,348.53,2766,319.09" transform="translate(-22.3)"/><path id="path3188-3" data-name="path3188" class="cls-2" d="M2885.07,310.22l-43.46-29.43" transform="translate(-22.3)"/><path id="path3188-4" data-name="path3188" class="cls-2" d="M3009.15,220.13l-43.46-29.43" transform="translate(-22.3)"/><path id="path3188-5" data-name="path3188" class="cls-2" d="M3063,142.81l-43.46-29.44" transform="translate(-22.3)"/></g><g id="Layer_2" data-name="Layer 2"><path class="cls-5" d="M2571.14,237.42h81.25V527.35h142.3v68H2571.14Z" transform="translate(-22.3)"/><path class="cls-5" d="M2914.69,503.46l-25.49,91.86h-83.9l109.39-357.9h106.2l111,357.9h-87.08l-27.62-91.86Zm90.8-60.54L2983.19,367c-6.37-21.24-12.74-47.79-18.05-69h-1.07c-5.31,21.24-10.62,48.32-16.46,69l-21.24,75.93Z" transform="translate(-22.3)"/><path class="cls-5" d="M3146.73,242.2c21.24-4.24,64.25-7.43,104.61-7.43,49.38,0,79.65,4.78,105.67,20.18,25,13.27,43,37.7,43,70.09,0,31.86-18.58,61.6-58.94,76.47v1.06c40.89,11.15,71.15,41.95,71.15,88.14,0,32.4-14.86,57.88-37.17,75.94C3349,587.36,3305.5,599,3234.35,599c-39.83,0-69.56-2.66-87.62-5.31Zm80.18,137h26.55c42.48,0,65.32-17.52,65.32-44.07,0-27.08-20.71-41.42-57.35-41.42-17.52,0-27.61,1.06-34.52,2.13Zm0,158.77c8,1.07,17.53,1.07,31.33,1.07,36.64,0,69-13.81,69-51.51,0-36.11-32.39-50.45-72.74-50.45h-27.62Z" transform="translate(-22.3)"/></g></svg>