<?xml version="1.0" encoding="utf-8"?>
<!-- Generator: Adobe Illustrator 22.0.1, SVG Export Plug-In . SVG Version: 6.00 Build 0)  -->
<svg version="1.1" xmlns="http://www.w3.org/2000/svg" xmlns:xlink="http://www.w3.org/1999/xlink" x="0px" y="0px"
	 viewBox="0 0 775.5 775.5" style="enable-background:new 0 0 775.5 775.5;" xml:space="preserve">
<style type="text/css">
	.st0{fill:#22B573;}
	.st1{fill:#F7931E;}
	.st2{fill:#0071BC;}
	.st3{display:none;}
	.st4{display:inline;fill:none;stroke:#000000;stroke-width:3;stroke-miterlimit:10;}
	.st5{opacity:0.2;}
	.st6{fill:#76BF93;}
	.st7{fill:none;}
	.st8{fill:#FFFFFF;stroke:#000000;stroke-miterlimit:1.4142;}
</style>
<g id="Layer_1">
	<path id="constructs" class="st0" d="M387.8,103c76.1,0,147.6,29.6,201.3,83.4s83.4,125.3,83.4,201.3c0,51-13.3,99.9-38.3,142.8
		l21.9,60.6l67.3-9.1c8.1-13.9,15.3-28.4,21.6-43.4c20.2-47.8,30.5-98.6,30.5-150.9S765.2,284.6,745,236.8
		c-19.5-46.2-47.5-87.6-83.1-123.2C626.3,78,584.9,50,538.7,30.5C490.9,10.3,440.1,0,387.8,0c0,0-0.1,0-0.1,0v103
		C387.7,103,387.7,103,387.8,103z"/>
	<path id="designs" class="st1" d="M103,387.8c0-76.1,29.6-147.6,83.4-201.3c53.8-53.8,125.2-83.4,201.2-83.4l39.5-49.8L387.6,0
		c-52.3,0-103,10.3-150.8,30.5C190.6,50,149.2,78,113.6,113.6C78,149.2,50,190.6,30.5,236.8C10.3,284.6,0,335.4,0,387.8
		s10.3,103.1,30.5,150.9c6.3,14.9,13.5,29.3,21.6,43.2l89.2-51.5C116.3,487.6,103,438.7,103,387.8z"/>
	<path id="experiments" class="st2" d="M634.2,530.6c-12.3,21.1-27.4,40.8-45.1,58.5c-53.8,53.8-125.3,83.4-201.3,83.4
		s-147.6-29.6-201.3-83.4c-17.8-17.8-32.9-37.5-45.2-58.6l-62.1-9.3l-27.1,60.7c16.8,29.1,37.4,55.9,61.5,80
		c35.6,35.6,77.1,63.5,123.2,83.1c47.8,20.2,98.6,30.5,150.9,30.5s103.1-10.3,150.9-30.5c46.2-19.5,87.6-47.5,123.2-83.1
		c24.1-24.1,44.6-50.8,61.5-79.9l-67.3,9.1L634.2,530.6z"/>
</g>
<g id="Layer_3" class="st3">
	<circle class="st4" cx="387.7" cy="387.8" r="336.2"/>
</g>
<g id="Layer_4">
	<g id="path3188_4_" class="st5">
		<path class="st6" d="M337.2,469.7l-6.9-4.7"/>
		<rect x="333.2" y="463.2" transform="matrix(0.5608 -0.828 0.828 0.5608 -240.379 481.5693)" width="1" height="8.3"/>
	</g>
</g>
<g id="Layer_2">
	<g id="designstext">
		<circle class="st7" cx="387.7" cy="387.8" r="336.2"/>
		<path class="st8" d="M41.1,323c0.2-2.8,0.7-6.3,1.6-10c1.4-6.1,3.4-9.8,6.4-12.4c3.2-2.8,7.7-4,13.4-2.7c6.2,1.4,9.9,4.6,11.8,8.3
			c2.1,4,2.2,9.5,0.8,15.8c-0.9,3.8-1.7,6.4-2.4,8.2L41.1,323z M69,321.7c0.3-0.6,0.5-1.6,0.7-2.5c1.5-6.6-1.1-11.7-8.8-13.5
			c-6.7-1.6-11.1,1.6-12.5,7.8c-0.4,1.6-0.5,2.7-0.5,3.4L69,321.7z"/>
		<path class="st8" d="M73.2,275.5l-3.7,11.6l7.5,2.4l4.2-12.9l5.8,1.9l-6.5,20L49,288.4l6.3-19.4l5.8,1.9l-4,12.3l6.5,2.1l3.7-11.6
			L73.2,275.5z"/>
		<path class="st8" d="M81.3,271.8c1.7-1.5,3.8-3.9,5.1-6.9c1.3-3.2,0.7-5.4-1.3-6.2c-1.9-0.8-3.6,0.2-6.4,3.3
			c-3.9,4.3-8,6.5-12.5,4.7c-5.2-2.2-7.4-8.1-4.4-15.3c1.4-3.4,3.2-5.7,4.8-7.2l4.9,3.8c-1.1,1-2.9,2.8-4.1,5.8
			c-1.2,3-0.5,5,1.1,5.7c1.9,0.8,3.5-0.6,6.6-3.9c4.2-4.6,8.1-5.9,12.4-4.2c5.1,2.1,7.8,7.9,4.4,16.2c-1.4,3.5-3.8,6.6-5.4,7.9
			L81.3,271.8z"/>
		<path class="st8" d="M71.9,230.4l29.7,14.4l-3.3,6.7l-29.7-14.4L71.9,230.4z"/>
		<path class="st8" d="M116.3,215.3c-0.5,2.4-1.7,6.7-3.9,10.5c-3,5.2-6.5,8.2-10.6,9.4c-4,1.2-8.5,0.5-12.7-2
			c-9.5-5.5-10.9-15.6-5.5-25c2.1-3.7,4.5-6.1,6-7.1l4.4,4.3c-1.6,1.2-3.3,2.8-5.1,6c-3.1,5.4-2.4,11.2,3.8,14.8
			c5.9,3.4,11.5,1.7,14.6-3.6c0.9-1.5,1.4-2.8,1.4-3.4l-6-3.5l-2.5,4.4l-5.1-2.9l6.1-10.7L116.3,215.3z"/>
		<path class="st8" d="M119.9,212.5l-26.8-19.3l5.1-7.1l13.8,1.5c4,0.4,8.5,1.2,12.3,2.2l0.1-0.1c-3.8-2.1-7.5-4.6-11.6-7.5
			l-7.8-5.6l4-5.6l26.8,19.3l-4.6,6.4l-14.5-1.7c-4-0.5-8.7-1.2-12.8-2.1l0,0.1c3.7,2.4,7.5,5,11.9,8.2l8.1,5.8L119.9,212.5z"/>
		<path class="st8" d="M133.4,181.3c2.1-0.8,4.9-2.5,7-4.9c2.2-2.6,2.3-4.9,0.7-6.3c-1.6-1.3-3.5-0.9-7.1,1.2
			c-5,2.9-9.7,3.6-13.3,0.5c-4.3-3.7-4.5-10.1,0.6-16c2.4-2.8,4.8-4.4,6.8-5.3l3.5,5.2c-1.3,0.6-3.6,1.8-5.7,4.2s-2,4.6-0.7,5.7
			c1.6,1.4,3.5,0.6,7.5-1.6c5.4-3,9.5-3.1,13.1-0.1c4.2,3.6,5,9.9-1,16.8c-2.5,2.9-5.6,5-7.6,5.8L133.4,181.3z"/>
	</g>
	<g id="constructstext">
		<circle class="st7" cx="387.7" cy="387.8" r="336.2"/>
		<path class="st8" d="M604.5,151.1c-1.5-0.4-4.3-1.8-7.4-4.4c-8.7-7.4-8.6-16.6-2.5-23.8c7.3-8.6,17.5-8.2,25.1-1.8
			c3,2.5,4.7,5,5.3,6.4l-5,3.5c-0.7-1.5-2-3.3-4-5c-4.5-3.8-10.4-4.1-15.1,1.5c-4.3,5.1-4,10.8,1.1,15.1c1.7,1.5,3.9,2.7,5.4,3.2
			L604.5,151.1z"/>
		<path class="st8" d="M638.6,162.8c-7.7,7.6-17,7.5-23.8,0.7c-6.9-7-5.6-16.3,1.1-22.9c7-6.9,16.8-7.6,23.6-0.7
			C646.6,147.1,645.1,156.4,638.6,162.8z M621.6,146.1c-4.6,4.5-5.7,9.9-2.2,13.5c3.5,3.6,9,2.3,13.6-2.2c4.2-4.2,5.9-9.8,2.2-13.4
			C631.6,140.3,626.1,141.6,621.6,146.1z"/>
		<path class="st8" d="M628.7,177.1l25.8-20.7l5.5,6.8l-5.1,12.9c-1.5,3.7-3.5,7.8-5.5,11.3l0.1,0.1c3.1-3.1,6.5-6,10.3-9.1l7.5-6
			l4.3,5.4l-25.8,20.7l-4.9-6.1l5.5-13.5c1.5-3.7,3.5-8.1,5.5-11.8l-0.1-0.1c-3.3,2.9-6.8,5.9-11.1,9.2l-7.8,6.2L628.7,177.1z"/>
		<path class="st8" d="M655.2,198.5c0.3,2.2,1.1,5.4,2.9,8c1.9,2.9,4.1,3.6,5.9,2.4c1.7-1.1,1.8-3.1,0.8-7.2
			c-1.4-5.6-0.9-10.3,3.1-12.9c4.7-3.1,10.9-1.6,15.2,4.9c2.1,3.1,2.9,5.8,3.3,7.9l-5.9,1.9c-0.2-1.5-0.7-3.9-2.5-6.6
			c-1.8-2.7-3.9-3.2-5.3-2.2c-1.8,1.2-1.5,3.2-0.5,7.7c1.4,6,0.4,10-3.5,12.6c-4.6,3.1-10.9,2.1-15.9-5.4c-2.1-3.1-3.3-6.8-3.5-8.9
			L655.2,198.5z"/>
		<path class="st8" d="M688.9,216.2l-4.3-7.7l5.5-3l12.3,22.2l-5.5,3l-4.4-7.9l-23.4,13l-3.6-6.6L688.9,216.2z"/>
		<path class="st8" d="M704.4,232.6c1.3,2,3.1,5.2,4.7,8.8c2,4.5,2.8,7.9,2,10.8c-0.6,2.4-2.3,4.4-5,5.6c-3.8,1.7-7.7,0.2-9.8-2
			l-0.1,0.1c0.1,2.5-1.4,4.6-3.8,6.6c-3,2.5-6.5,5.2-7.4,6.3l-3.1-7c0.6-0.9,2.8-2.7,6.1-5.3c3.4-2.5,3.8-4.3,2.6-7l-0.9-2.1
			l-11.8,5.3l-3-6.7L704.4,232.6z M694.4,245.2l1.2,2.7c1.5,3.4,4.1,4.6,6.8,3.4c2.8-1.3,3.3-3.8,1.9-6.9c-0.7-1.7-1.3-2.5-1.6-3
			L694.4,245.2z"/>
		<path class="st8" d="M719.4,267.2l-18,6.2c-5.4,1.8-7.4,4.8-6.2,8.4c1.3,3.7,4.6,4.9,10.1,3l18-6.2l2.4,7l-17.5,6
			c-9.6,3.3-15.9,0-18.7-8.1c-2.7-7.9,0.1-14,10-17.4l17.4-6L719.4,267.2z"/>
		<path class="st8" d="M702.5,324.5c-1-1.2-2.4-4-3.4-7.9c-2.7-11.1,2.8-18.5,12-20.7c11-2.7,18.9,3.7,21.3,13.4
			c0.9,3.8,0.8,6.8,0.5,8.3l-6.1-0.1c0.3-1.6,0.3-3.8-0.3-6.4c-1.4-5.8-6-9.4-13.1-7.7c-6.4,1.6-9.6,6.3-8,12.8
			c0.5,2.2,1.6,4.5,2.5,5.8L702.5,324.5z"/>
		<path class="st8" d="M729.7,331.1l-1.3-8.8l6.2-0.9l3.8,25.1l-6.2,0.9l-1.4-8.9l-26.4,4l-1.1-7.4L729.7,331.1z"/>
		<path class="st8" d="M713.5,353.4c-0.9,2.1-1.7,5.2-1.4,8.4c0.3,3.4,1.8,5.1,4,5c2.1-0.2,3.1-1.8,4.2-5.9c1.5-5.6,4.3-9.4,9.1-9.8
			c5.6-0.4,10.3,4,10.8,11.7c0.3,3.7-0.3,6.5-1,8.5l-6.1-1.2c0.5-1.4,1.3-3.8,1.1-7c-0.2-3.2-1.8-4.7-3.5-4.6
			c-2.1,0.2-2.9,2.1-4.2,6.5c-1.7,6-4.5,8.9-9.2,9.3c-5.5,0.4-10.5-3.5-11.2-12.5c-0.3-3.8,0.4-7.5,1.3-9.5L713.5,353.4z"/>
	</g>
	<g id="experimentstext">
		<circle class="st7" cx="387.7" cy="387.8" r="336.2"/>
		<path class="st8" d="M244.8,695.2l-10.9-5.4l-3.5,7l12.1,6.1l-2.7,5.5l-18.8-9.4l14.8-29.5l18.2,9.1l-2.7,5.5l-11.5-5.8l-3.1,6.1
			l10.9,5.4L244.8,695.2z"/>
		<path class="st8" d="M261.9,717.4l-0.6-6.7c-0.3-2.6-0.4-4.5-0.5-6.6l-0.1,0c-1.3,1.5-2.8,2.8-4.6,4.6l-4.8,4.5l-7.9-3.2l15.1-12
			l-2.5-18.6l8,3.2l0.4,6.7c0.2,2.2,0.2,4,0.3,6l0.1,0c1.5-1.7,2.6-2.8,4.1-4.3l4.8-4.6l7.9,3.2L267,701.3l2.8,19.3L261.9,717.4z"/>
		<path class="st8" d="M284.5,691.1c2.3,0.3,5.5,0.9,9.9,2.3c4.4,1.3,7.3,3.1,8.9,5.4c1.5,2.2,2.1,5.2,1.2,8.3s-2.8,5.4-5.2,6.6
			c-3.1,1.6-7.1,1.5-11.3,0.2c-0.9-0.3-1.8-0.6-2.4-0.9l-3.4,11.3l-7.1-2.1L284.5,691.1z M287.2,707.6c0.6,0.3,1.3,0.6,2.3,0.9
			c3.8,1.1,6.7-0.1,7.7-3.3c0.9-2.9-0.6-5.3-4.2-6.3c-1.5-0.4-2.5-0.6-3-0.6L287.2,707.6z"/>
		<path class="st8" d="M325.9,721.1l-11.9-2.5l-1.6,7.7l13.3,2.8l-1.3,6l-20.6-4.4l6.9-32.3l19.9,4.3l-1.3,6l-12.6-2.7l-1.4,6.7
			l11.9,2.6L325.9,721.1z"/>
		<path class="st8" d="M334.9,703.8c2.4-0.1,6,0.1,10,0.6c4.9,0.6,8.2,1.8,10.3,3.9c1.7,1.8,2.5,4.2,2.1,7.2
			c-0.5,4.2-3.9,6.7-6.8,7.3l0,0.1c2.2,1.2,3.1,3.6,3.6,6.7c0.5,3.8,1,8.2,1.5,9.6l-7.6-1c-0.4-1-0.8-3.8-1.3-7.9
			c-0.3-4.2-1.6-5.5-4.6-5.9l-2.2-0.3l-1.7,12.9l-7.3-1L334.9,703.8z M340.4,718.8l2.9,0.4c3.7,0.5,6.1-1.1,6.5-4
			c0.4-3-1.5-4.8-4.9-5.3c-1.8-0.2-2.8-0.2-3.4-0.2L340.4,718.8z"/>
		<path class="st8" d="M370.3,707l-2.2,33l-7.5-0.5l2.2-33L370.3,707z"/>
		<path class="st8" d="M403.6,727.7c-0.2-4-0.4-8.8-0.5-13.6l-0.1,0c-1,4.2-2.3,9-3.5,12.8l-3.8,13l-5.8,0.1l-3.7-12.7
			c-1.1-3.9-2.3-8.5-3.2-12.8l-0.1,0c-0.1,4.5-0.2,9.6-0.4,13.7l-0.4,12.6l-6.9,0.1l1.6-33.1l9.9-0.2l3.4,11c1.1,3.8,2.2,7.9,3,11.8
			l0.1,0c0.9-3.8,1.9-8.2,2.9-11.9l3.3-11l9.8-0.2l2.3,33l-7.3,0.1L403.6,727.7z"/>
		<path class="st8" d="M436.9,723.2l-12.1,1.4l0.9,7.8l13.5-1.6l0.7,6.1l-20.9,2.4l-3.8-32.8l20.2-2.3l0.7,6.1l-12.8,1.5l0.8,6.8
			l12.1-1.4L436.9,723.2z"/>
		<path class="st8" d="M446.4,735.9l-6.7-32.3l8.5-1.8l9.2,10.5c2.6,3,5.4,6.6,7.6,10l0.1,0c-1.4-4.2-2.4-8.5-3.4-13.4l-2-9.5
			l6.7-1.4l6.7,32.3l-7.7,1.6l-9.5-11c-2.6-3.1-5.6-6.8-8-10.3l-0.1,0.1c1.1,4.2,2.1,8.8,3.2,14l2,9.7L446.4,735.9z"/>
		<path class="st8" d="M479.2,700.8l-8.5,2.6l-1.8-6l24.3-7.4l1.8,6l-8.6,2.6l7.8,25.6l-7.2,2.2L479.2,700.8z"/>
		<path class="st8" d="M504.7,712.6c2.2,0.2,5.5,0.1,8.5-1.1c3.2-1.3,4.4-3.2,3.6-5.2c-0.8-1.9-2.6-2.4-6.9-2.3
			c-5.8,0.2-10.2-1.3-12-5.8c-2.1-5.2,0.7-11,8-13.8c3.5-1.4,6.3-1.6,8.5-1.5l0.7,6.2c-1.5-0.1-4-0.1-7,1.1c-3,1.2-3.9,3.1-3.3,4.7
			c0.8,2,2.8,2.1,7.4,2.1c6.2-0.1,9.9,1.7,11.6,6c2,5.2-0.2,11.1-8.7,14.4c-3.5,1.4-7.3,1.8-9.4,1.6L504.7,712.6z"/>
	</g>
	<g>
	</g>
	<g>
	</g>
	<g>
	</g>
	<g>
	</g>
	<g>
	</g>
	<g>
	</g>
	<g>
	</g>
	<g>
	</g>
	<g>
	</g>
	<g>
	</g>
	<g>
	</g>
	<g>
	</g>
	<g>
	</g>
	<g>
	</g>
	<g>
	</g>
</g>
</svg>
