<svg xmlns="http://www.w3.org/2000/svg" viewBox="0 0 775.5 775.5"><defs><style>.cls-1{fill:#22b573;}.cls-2{fill:#f7931e;}.cls-3{fill:#0071bc;}.cls-4{opacity:0.2;}.cls-5{fill:#76bf93;}.cls-6{fill:#fff;stroke:#000;stroke-miterlimit:1.41;}</style></defs><title>sbhlab2</title><g id="Layer_1" data-name="Layer 1"><path id="constructs" class="cls-1" d="M387.75,103A284.91,284.91,0,0,1,634.21,530.57l21.91,60.63,67.26-9.15A387.65,387.65,0,0,0,387.75,0h-.13V103Z"/><path id="designs" class="cls-2" d="M103,387.75A284.75,284.75,0,0,1,387.62,103l39.5-49.8L387.62,0A387.67,387.67,0,0,0,52.05,581.94l89.18-51.48A283,283,0,0,1,103,387.75Z"/><path id="experiments" class="cls-3" d="M634.21,530.57A286.48,286.48,0,0,1,589.1,589.1a284.76,284.76,0,0,1-402.7,0,286.1,286.1,0,0,1-45.17-58.64L79.12,521.2,52.05,581.94a388,388,0,0,0,671.33.11l-67.26,9.15Z"/></g><g id="Layer_4" data-name="Layer 4"><path class="cls-2" d="M178.12,413.76a29,29,0,0,0,14.63,4.13c8.35,0,13.23-4.41,13.23-10.79,0-5.9-3.38-9.28-11.91-12.56-10.32-3.66-16.7-9-16.7-17.92,0-9.84,8.16-17.16,20.45-17.16,6.47,0,11.16,1.5,14,3.1l-2.25,6.66a25.09,25.09,0,0,0-12-3c-8.63,0-11.91,5.15-11.91,9.47,0,5.91,3.84,8.81,12.56,12.19,10.69,4.12,16.13,9.28,16.13,18.57,0,9.75-7.22,18.19-22.13,18.19-6.1,0-12.75-1.78-16.13-4Z"/><path class="cls-2" d="M227.45,378.31l9.94,26.82c1,3,2.16,6.57,2.91,9.29h.19c.84-2.72,1.78-6.19,2.91-9.47l9-26.64h8.72l-12.38,32.36c-5.91,15.57-9.94,23.54-15.57,28.41a22.35,22.35,0,0,1-10.12,5.35L221,437.49a21.79,21.79,0,0,0,7.22-4,24.93,24.93,0,0,0,6.94-9.19,5.87,5.87,0,0,0,.66-2,7.32,7.32,0,0,0-.56-2.16l-16.79-41.83Z"/><path class="cls-2" d="M268.63,390.6c0-4.69-.1-8.54-.38-12.29h7.31l.47,7.51h.19a16.68,16.68,0,0,1,15-8.54c6.28,0,16,3.75,16,19.32v27.1H299V397.54c0-7.32-2.72-13.41-10.5-13.41a11.73,11.73,0,0,0-11.07,8.44,12,12,0,0,0-.56,3.84V423.7h-8.25Z"/><path class="cls-1" d="M321,361.34A79.07,79.07,0,0,1,335.87,360c8.16,0,13.41,1.4,17.35,4.59,3.28,2.44,5.25,6.19,5.25,11.16,0,6.1-4,11.44-10.69,13.88v.19c6,1.5,13,6.47,13,15.85a17,17,0,0,1-5.34,12.66c-4.41,4-11.54,5.91-21.85,5.91a96.25,96.25,0,0,1-12.66-.75Zm8.16,25.88h7.4c8.63,0,13.7-4.5,13.7-10.6,0-7.4-5.63-10.31-13.88-10.31a35.06,35.06,0,0,0-7.22.56Zm0,30.29a43.51,43.51,0,0,0,6.84.38c8.44,0,16.23-3.1,16.23-12.29,0-8.62-7.41-12.19-16.32-12.19h-6.75Z"/><path class="cls-1" d="M380.7,365.56c.09,2.81-2,5.06-5.26,5.06a4.91,4.91,0,0,1-5-5.06,5,5,0,0,1,5.16-5.16A4.9,4.9,0,0,1,380.7,365.56Zm-9.19,58.14V378.31h8.25V423.7Z"/><path class="cls-1" d="M434.53,400.63c0,16.79-11.63,24.1-22.6,24.1-12.29,0-21.76-9-21.76-23.35,0-15.19,9.94-24.1,22.51-24.1C425.71,377.28,434.53,386.75,434.53,400.63Zm-36,.47c0,9.94,5.73,17.44,13.79,17.44,7.88,0,13.79-7.4,13.79-17.63,0-7.69-3.85-17.44-13.6-17.44S398.51,392.47,398.51,401.1Z"/><path class="cls-3" d="M453.38,360.5v26.44H484V360.5h8.25v63.2H484V394.07H453.38V423.7h-8.16V360.5Z"/><path class="cls-3" d="M544.07,411.32c0,4.69.09,8.82.37,12.38h-7.31l-.47-7.41h-.19a17.07,17.07,0,0,1-15,8.44c-7.13,0-15.67-3.93-15.67-19.88V378.31h8.26v25.14c0,8.62,2.62,14.44,10.13,14.44a11.61,11.61,0,0,0,11.62-11.72V378.31h8.26Z"/><path class="cls-3" d="M557.39,423.7c.18-3.09.37-7.69.37-11.72V357.12h8.16v28.51h.19c2.9-5.07,8.16-8.35,15.47-8.35,11.25,0,19.23,9.38,19.13,23.17,0,16.22-10.22,24.28-20.35,24.28-6.56,0-11.81-2.53-15.19-8.53h-.28l-.38,7.5Zm8.53-18.19a16.09,16.09,0,0,0,.37,3,12.74,12.74,0,0,0,12.38,9.66c8.63,0,13.79-7,13.79-17.44,0-9.1-4.69-16.88-13.5-16.88A13.16,13.16,0,0,0,566.39,394a16.19,16.19,0,0,0-.47,3.38Z"/><g id="path3188" class="cls-4"><path class="cls-5" d="M337.15,469.68l-6.9-4.67"/><rect x="333.22" y="463.18" width="0.95" height="8.34" transform="translate(-240.38 481.57) rotate(-55.89)"/></g></g><g id="Layer_2" data-name="Layer 2"><g id="designstext"><path class="cls-6" d="M41.08,323a67.54,67.54,0,0,1,1.56-10c1.39-6.12,3.39-9.83,6.44-12.41,3.24-2.78,7.68-4,13.37-2.7,6.16,1.4,9.91,4.61,11.83,8.31,2,4,2.22,9.5.79,15.81a63.56,63.56,0,0,1-2.35,8.16ZM69,321.68a12.63,12.63,0,0,0,.72-2.5c1.54-6.58-1.11-11.71-8.81-13.45-6.68-1.56-11.1,1.55-12.52,7.81a15.61,15.61,0,0,0-.46,3.37Z"/><path class="cls-6" d="M73.23,275.53l-3.74,11.56L77,289.51l4.18-12.92L87,278.48l-6.49,20L49.05,288.35,55.32,269l5.83,1.89-4,12.26,6.53,2.11,3.74-11.56Z"/><path class="cls-6" d="M81.3,271.76a19.18,19.18,0,0,0,5.07-6.87c1.31-3.17.69-5.39-1.31-6.21s-3.59.21-6.42,3.33c-3.86,4.35-8,6.49-12.47,4.66-5.21-2.16-7.4-8.15-4.42-15.35a20.21,20.21,0,0,1,4.76-7.15L71.44,248a15.85,15.85,0,0,0-4.09,5.78c-1.23,3-.47,5,1.11,5.66,2,.8,3.52-.56,6.65-3.88,4.22-4.57,8.07-5.94,12.38-4.17,5.11,2.12,7.83,7.86,4.37,16.24a21.58,21.58,0,0,1-5.44,7.88Z"/><path class="cls-6" d="M71.93,230.38l29.71,14.43-3.28,6.75-29.7-14.44Z"/><path class="cls-6" d="M116.29,215.29a36.93,36.93,0,0,1-3.89,10.48c-3,5.22-6.51,8.24-10.57,9.4a16,16,0,0,1-12.73-2c-9.48-5.53-10.93-15.58-5.52-25a22.76,22.76,0,0,1,6-7.13l4.4,4.34a18.28,18.28,0,0,0-5.08,6c-3.1,5.39-2.4,11.23,3.8,14.8,5.9,3.4,11.51,1.72,14.57-3.59a10,10,0,0,0,1.41-3.43l-6-3.45-2.55,4.41-5-2.91,6.14-10.65Z"/><path class="cls-6" d="M119.91,212.53,93.09,193.25l5.09-7.08L112,187.66a95.86,95.86,0,0,1,12.34,2.23l.08-.12a123.88,123.88,0,0,1-11.55-7.52L105,176.62l4-5.57,26.83,19.27-4.58,6.37L116.83,195A119.91,119.91,0,0,1,104,192.83L104,193c3.66,2.39,7.5,5,11.87,8.17l8.08,5.8Z"/><path class="cls-6" d="M133.43,181.27a19,19,0,0,0,7-4.92c2.24-2.6,2.35-4.9.71-6.31s-3.47-.92-7.14,1.15c-5,2.91-9.67,3.63-13.3.5-4.27-3.69-4.46-10.06.63-16a20.07,20.07,0,0,1,6.77-5.29l3.47,5.2a15.61,15.61,0,0,0-5.7,4.2c-2.11,2.45-2,4.6-.72,5.72,1.59,1.37,3.51.57,7.52-1.6,5.44-3,9.54-3.1,13.06-.05,4.19,3.61,5,9.91-1,16.78a21.7,21.7,0,0,1-7.63,5.77Z"/></g><g id="constructstext"><path class="cls-6" d="M604.53,151.1a21.29,21.29,0,0,1-7.39-4.38c-8.72-7.37-8.62-16.6-2.55-23.78,7.28-8.6,17.46-8.21,25.1-1.75a19.56,19.56,0,0,1,5.26,6.37l-5,3.55a16.16,16.16,0,0,0-4-5c-4.52-3.82-10.35-4.07-15.09,1.55-4.28,5-4,10.76,1.12,15.06a18.64,18.64,0,0,0,5.45,3.19Z"/><path class="cls-6" d="M638.63,162.79c-7.71,7.6-17,7.54-23.77.66s-5.64-16.25,1.06-22.86c7.05-7,16.76-7.64,23.6-.69C646.64,147.12,645.12,156.4,638.63,162.79Zm-17.07-16.68c-4.6,4.54-5.72,9.9-2.21,13.46s9,2.28,13.57-2.22c4.22-4.17,5.85-9.77,2.24-13.43S626.14,141.6,621.56,146.11Z"/><path class="cls-6" d="M628.71,177.13l25.76-20.67,5.46,6.81-5.15,12.92a95.31,95.31,0,0,1-5.45,11.29l.09.12a120.83,120.83,0,0,1,10.34-9.12l7.53-6,4.29,5.35-25.76,20.67-4.9-6.11,5.52-13.48A120.06,120.06,0,0,1,652,167.1l-.13-.09c-3.28,2.89-6.85,5.88-11.06,9.25L633,182.48Z"/><path class="cls-6" d="M655.19,198.54a18.87,18.87,0,0,0,2.87,8c1.9,2.86,4.08,3.58,5.88,2.39s1.82-3.1.81-7.19c-1.45-5.63-.9-10.29,3.1-13,4.69-3.12,10.89-1.59,15.2,4.9a20.25,20.25,0,0,1,3.28,7.94l-5.94,2a15.68,15.68,0,0,0-2.52-6.62c-1.79-2.69-3.88-3.18-5.31-2.23-1.76,1.16-1.5,3.23-.49,7.67,1.44,6,.43,10-3.45,12.6-4.61,3.06-10.89,2.12-15.91-5.43a21.69,21.69,0,0,1-3.51-8.91Z"/><path class="cls-6" d="M688.88,216.2l-4.31-7.74,5.48-3.05,12.34,22.17-5.48,3-4.38-7.87-23.38,13-3.64-6.55Z"/><path class="cls-6" d="M704.35,232.58a64,64,0,0,1,4.72,8.78c2,4.47,2.76,7.9,2,10.81a8.36,8.36,0,0,1-5,5.61,8.76,8.76,0,0,1-9.82-2l-.13.06c.1,2.49-1.39,4.56-3.81,6.57-3,2.47-6.48,5.18-7.38,6.29l-3.15-7c.63-.88,2.76-2.7,6.07-5.27s3.83-4.26,2.62-7.05l-.93-2.05-11.83,5.35L674.65,246Zm-9.9,12.59,1.21,2.68c1.53,3.4,4.13,4.64,6.77,3.45s3.31-3.75,1.94-6.9a19,19,0,0,0-1.62-3Z"/><path class="cls-6" d="M719.44,267.22l-18,6.19c-5.38,1.84-7.41,4.82-6.16,8.44s4.57,4.85,10.08,3l18-6.19,2.43,7-17.52,6c-9.64,3.32-15.9,0-18.71-8.13-2.71-7.87.05-14,10-17.44l17.42-6Z"/><path class="cls-6" d="M702.45,324.51a21.2,21.2,0,0,1-3.37-7.9c-2.69-11.1,2.83-18.49,12-20.7,11-2.66,18.94,3.68,21.3,13.39a19.38,19.38,0,0,1,.48,8.25l-6.12-.08a16,16,0,0,0-.28-6.38c-1.4-5.76-6-9.4-13.1-7.67-6.43,1.56-9.56,6.35-8,12.83a18.56,18.56,0,0,0,2.52,5.79Z"/><path class="cls-6" d="M729.65,331.12l-1.34-8.77,6.2-1,3.84,25.09-6.2.95-1.36-8.91-26.45,4.05-1.13-7.41Z"/><path class="cls-6" d="M713.54,353.41a19.1,19.1,0,0,0-1.43,8.41c.25,3.42,1.8,5.12,3.95,5s3.11-1.8,4.23-5.87c1.5-5.61,4.27-9.4,9.05-9.76,5.62-.42,10.27,4,10.85,11.72a20.23,20.23,0,0,1-1,8.53L733,370.19a15.67,15.67,0,0,0,1.05-7c-.24-3.22-1.82-4.68-3.53-4.55-2.1.16-2.89,2.08-4.19,6.45-1.72,6-4.54,8.94-9.18,9.28-5.53.41-10.53-3.49-11.2-12.53a21.57,21.57,0,0,1,1.31-9.48Z"/></g><g id="experimentstext"><path class="cls-6" d="M244.78,695.15l-10.86-5.44-3.51,7,12.13,6.09-2.75,5.47L221,698.82l14.81-29.51L254,678.45l-2.75,5.47-11.52-5.78-3.07,6.13,10.86,5.45Z"/><path class="cls-6" d="M261.86,717.43l-.56-6.66c-.28-2.6-.37-4.48-.52-6.6l-.09,0c-1.35,1.52-2.76,2.81-4.57,4.56l-4.77,4.53-7.92-3.17,15.09-12L256,679.52l8,3.19.44,6.67c.17,2.23.25,4,.28,6l.09,0c1.52-1.67,2.65-2.8,4.14-4.26l4.83-4.56,7.92,3.17L267.05,701.3l2.81,19.33Z"/><path class="cls-6" d="M284.5,691.12a60.65,60.65,0,0,1,9.86,2.26c4.41,1.33,7.3,3.13,8.9,5.45a9.66,9.66,0,0,1,1.16,8.34,10.5,10.5,0,0,1-5.17,6.62c-3.13,1.57-7.06,1.51-11.28.23a18.57,18.57,0,0,1-2.39-.87l-3.42,11.3-7.08-2.14Zm2.75,16.49a10.85,10.85,0,0,0,2.33.91c3.8,1.15,6.73-.07,7.71-3.3.87-2.91-.62-5.26-4.18-6.33a12.52,12.52,0,0,0-3-.61Z"/><path class="cls-6" d="M325.9,721.06,314,718.51l-1.64,7.66L325.64,729l-1.29,6-20.6-4.42,6.93-32.29,19.94,4.27-1.29,6-12.6-2.7-1.44,6.71,11.88,2.55Z"/><path class="cls-6" d="M334.9,703.79a65.82,65.82,0,0,1,10,.6c4.86.63,8.16,1.8,10.26,3.94a8.41,8.41,0,0,1,2.12,7.25,8.77,8.77,0,0,1-6.83,7.32l0,.14c2.17,1.22,3.15,3.57,3.58,6.69.54,3.83,1,8.24,1.48,9.58l-7.58-1c-.42-1-.85-3.77-1.3-7.93s-1.61-5.49-4.61-5.93l-2.24-.29-1.67,12.88-7.34-.95Zm5.51,15,2.92.38c3.69.48,6.12-1.08,6.49-4s-1.45-4.79-4.85-5.28a18.66,18.66,0,0,0-3.38-.19Z"/><path class="cls-6" d="M370.27,707l-2.16,33-7.48-.49,2.16-33Z"/><path class="cls-6" d="M403.65,727.66c-.21-4-.44-8.77-.52-13.57H403c-1,4.23-2.26,9-3.47,12.85l-3.81,12.95-5.83.1-3.74-12.73c-1.14-3.86-2.34-8.54-3.19-12.84h-.1c-.13,4.46-.19,9.56-.37,13.68l-.38,12.55-6.91.11,1.57-33,9.95-.17,3.41,11c1.09,3.8,2.19,7.9,3,11.76h.15c.87-3.84,1.93-8.22,2.94-11.91l3.35-11,9.75-.16,2.35,33-7.3.12Z"/><path class="cls-6" d="M436.89,723.16l-12.07,1.39.9,7.79,13.48-1.56.7,6.09L419,739.29l-3.79-32.81,20.25-2.34.7,6.08-12.8,1.48.79,6.82,12.07-1.4Z"/><path class="cls-6" d="M446.43,735.92l-6.71-32.33,8.54-1.78,9.17,10.46a94.26,94.26,0,0,1,7.58,10l.15,0a122.26,122.26,0,0,1-3.43-13.35l-2-9.45,6.72-1.39,6.71,32.33-7.67,1.6-9.5-11a122.77,122.77,0,0,1-8-10.25l-.13.07c1.08,4.23,2.12,8.77,3.22,14l2,9.74Z"/><path class="cls-6" d="M479.19,700.79l-8.48,2.58-1.83-6L493.16,690l1.83,6-8.63,2.63,7.79,25.59L487,726.38Z"/><path class="cls-6" d="M504.74,712.63a19,19,0,0,0,8.46-1.12c3.2-1.25,4.36-3.24,3.58-5.24s-2.65-2.44-6.86-2.31c-5.81.23-10.25-1.29-12-5.76-2.06-5.25.74-11,8-13.83a20.36,20.36,0,0,1,8.46-1.53l.65,6.22a15.61,15.61,0,0,0-7,1.07c-3,1.18-3.93,3.12-3.3,4.72.77,2,2.84,2.14,7.4,2.09,6.22-.13,9.88,1.7,11.58,6,2,5.16-.22,11.09-8.66,14.41a21.53,21.53,0,0,1-9.44,1.55Z"/></g></g></svg>