<svg xmlns="http://www.w3.org/2000/svg" xmlns:xlink="http://www.w3.org/1999/xlink" viewBox="0 0 3412.23 737.86"><defs><style>.cls-1,.cls-2{stroke:#010101;stroke-miterlimit:1.41;}.cls-1{stroke-linecap:round;stroke-width:7px;fill:url(#linear-gradient);}.cls-2{fill:#75c094;stroke-width:6px;opacity:0.2;}.cls-3,.cls-6{font-size:531px;}.cls-3{fill:#2d3e50;font-family:MyriadPro-Regular, Myriad Pro;}.cls-4{letter-spacing:-0.01em;}.cls-5{fill:#d25627;}.cls-6{fill:#020202;font-family:MyriadPro-Bold, Myriad Pro;font-weight:700;letter-spacing:-0.02em;}.cls-7{letter-spacing:-0.06em;}</style><linearGradient id="linear-gradient" x1="2899.67" y1="734.36" x2="2899.67" y2="2.9" gradientUnits="userSpaceOnUse"><stop offset="0" stop-color="#e9ddee"/><stop offset="0.44" stop-color="#d5acd1" stop-opacity="0.99"/><stop offset="0.44" stop-color="#d5edfa" stop-opacity="0"/></linearGradient></defs><title>synbiohub_lab</title><g id="Layer_1" data-name="Layer 1"><path id="rect3162" class="cls-1" d="M3220.88,110.35,3062.44,2.9c3.87,49.35-16.45,70.13-42.52,108L2936.1,229.79,2662.24,375.05c-86.43,36.8-108.58,112.28-54.35,149.41l291.33,196.79c47.88,37.73,110.36-9.8,122.3-93.54L3053,308.1l82.32-119.61c26.06-37.88,38.23-64.32,85.57-78.14Z"/><path id="path3188" class="cls-2" d="M2720.56,395.13,2677.1,365.7"/><text class="cls-3" transform="translate(0 598.47)"><tspan class="cls-4">S</tspan><tspan x="257.54" y="0">ynBio</tspan><tspan class="cls-5" x="1505.9" y="0">Hub</tspan></text><path id="path3188-2" data-name="path3188" class="cls-2" d="M2809.48,348.53,2766,319.09"/><path id="path3188-3" data-name="path3188" class="cls-2" d="M2885.07,310.22l-43.46-29.43"/><path id="path3188-4" data-name="path3188" class="cls-2" d="M3009.15,220.13l-43.46-29.43"/><path id="path3188-5" data-name="path3188" class="cls-2" d="M3063,142.81l-43.46-29.44"/></g><g id="Layer_2" data-name="Layer 2"><text class="cls-6" transform="translate(2536.1 595.32)">L<tspan class="cls-7" x="260.18" y="0">AB</tspan></text></g></svg>